<svg data-v-423bf9ae="" xmlns="http://www.w3.org/2000/svg" viewBox="0 0 454.96112802975983 60" class="font"><!----><!----><!----><g data-v-423bf9ae="" id="2dd5e4f3-dcc6-4022-87c4-ab50fee92f86" fill="black" transform="matrix(5.8365760270947415,0,0,5.8365760270947415,-2.0428000963654824,-16.80934010281313)"><path d="M5.01 3.22L8.23 3.22L8.23 13.02L5.33 13.02L5.24 11.63L5.24 11.63Q4.93 12.35 4.37 12.75L4.37 12.75L4.37 12.75Q3.81 13.16 3.02 13.16L3.02 13.16L3.02 13.16Q1.74 13.16 1.04 12.22L1.04 12.22L1.04 12.22Q0.35 11.28 0.35 9.56L0.35 9.56L0.35 9.56Q0.35 7.81 1.06 6.85L1.06 6.85L1.06 6.85Q1.76 5.88 3.04 5.88L3.04 5.88L3.04 5.88Q3.75 5.88 4.24 6.23L4.24 6.23L4.24 6.23Q4.73 6.58 5.01 7.20L5.01 7.20L5.01 3.22ZM4.33 10.91L4.33 10.91Q4.66 10.91 4.84 10.59L4.84 10.59L4.84 10.59Q5.01 10.28 5.01 9.58L5.01 9.58L5.01 9.46L5.01 9.46Q5.01 8.79 4.84 8.47L4.84 8.47L4.84 8.47Q4.68 8.15 4.33 8.15L4.33 8.15L4.33 8.15Q3.96 8.15 3.78 8.44L3.78 8.44L3.78 8.44Q3.60 8.74 3.60 9.52L3.60 9.52L3.60 9.52Q3.60 10.30 3.78 10.61L3.78 10.61L3.78 10.61Q3.96 10.91 4.33 10.91L4.33 10.91ZM10.93 5.57L10.93 5.57Q9.98 5.57 9.58 5.26L9.58 5.26L9.58 5.26Q9.18 4.96 9.18 4.23L9.18 4.23L9.18 4.23Q9.18 3.50 9.58 3.19L9.58 3.19L9.58 3.19Q9.98 2.88 10.93 2.88L10.93 2.88L10.93 2.88Q11.89 2.88 12.29 3.19L12.29 3.19L12.29 3.19Q12.68 3.50 12.68 4.23L12.68 4.23L12.68 4.23Q12.68 4.96 12.29 5.26L12.29 5.26L12.29 5.26Q11.89 5.57 10.93 5.57L10.93 5.57ZM12.54 6.02L12.54 13.02L9.32 13.02L9.32 6.02L12.54 6.02ZM23.42 5.88L23.42 5.88Q24.46 5.88 25.04 6.50L25.04 6.50L25.04 6.50Q25.62 7.11 25.62 8.23L25.62 8.23L25.62 13.02L22.40 13.02L22.40 9.07L22.40 9.07Q22.40 8.61 22.29 8.43L22.29 8.43L22.29 8.43Q22.18 8.26 21.91 8.26L21.91 8.26L21.91 8.26Q21.56 8.26 21.40 8.53L21.40 8.53L21.40 8.53Q21.24 8.79 21.24 9.35L21.24 9.35L21.24 13.02L18.02 13.02L18.02 9.07L18.02 9.07Q18.02 8.61 17.91 8.43L17.91 8.43L17.91 8.43Q17.79 8.26 17.53 8.26L17.53 8.26L17.53 8.26Q17.18 8.26 17.02 8.53L17.02 8.53L17.02 8.53Q16.86 8.79 16.86 9.35L16.86 9.35L16.86 13.02L13.64 13.02L13.64 6.02L16.53 6.02L16.60 7.55L16.60 7.55Q16.91 6.73 17.53 6.31L17.53 6.31L17.53 6.31Q18.14 5.88 19.04 5.88L19.04 5.88L19.04 5.88Q19.84 5.88 20.36 6.24L20.36 6.24L20.36 6.24Q20.89 6.61 21.11 7.28L21.11 7.28L21.11 7.28Q21.45 6.59 22.03 6.24L22.03 6.24L22.03 6.24Q22.61 5.88 23.42 5.88L23.42 5.88ZM34.03 9.30L34.03 9.30Q34.03 9.83 33.96 10.14L33.96 10.14L29.51 10.14L29.51 10.14Q29.58 10.65 29.81 10.84L29.81 10.84L29.81 10.84Q30.03 11.02 30.48 11.02L30.48 11.02L30.48 11.02Q31.16 11.02 31.32 10.42L31.32 10.42L33.91 11.12L33.91 11.12Q33.67 12.12 32.74 12.64L32.74 12.64L32.74 12.64Q31.81 13.16 30.48 13.16L30.48 13.16L30.48 13.16Q28.49 13.16 27.46 12.22L27.46 12.22L27.46 12.22Q26.43 11.28 26.43 9.52L26.43 9.52L26.43 9.52Q26.43 7.78 27.45 6.83L27.45 6.83L27.45 6.83Q28.46 5.88 30.31 5.88L30.31 5.88L30.31 5.88Q32.12 5.88 33.08 6.80L33.08 6.80L33.08 6.80Q34.03 7.73 34.03 9.30L34.03 9.30ZM30.32 8.01L30.32 8.01Q29.96 8.01 29.76 8.22L29.76 8.22L29.76 8.22Q29.57 8.43 29.51 8.95L29.51 8.95L31.02 8.95L31.02 8.95Q30.98 8.47 30.82 8.24L30.82 8.24L30.82 8.24Q30.66 8.01 30.32 8.01L30.32 8.01ZM42.83 3.22L46.05 3.22L46.05 13.02L43.15 13.02L43.05 11.63L43.05 11.63Q42.74 12.35 42.18 12.75L42.18 12.75L42.18 12.75Q41.62 13.16 40.84 13.16L40.84 13.16L40.84 13.16Q39.55 13.16 38.86 12.22L38.86 12.22L38.86 12.22Q38.16 11.28 38.16 9.56L38.16 9.56L38.16 9.56Q38.16 7.81 38.87 6.85L38.87 6.85L38.87 6.85Q39.58 5.88 40.85 5.88L40.85 5.88L40.85 5.88Q41.57 5.88 42.06 6.23L42.06 6.23L42.06 6.23Q42.55 6.58 42.83 7.20L42.83 7.20L42.83 3.22ZM42.14 10.91L42.14 10.91Q42.48 10.91 42.65 10.59L42.65 10.59L42.65 10.59Q42.83 10.28 42.83 9.58L42.83 9.58L42.83 9.46L42.83 9.46Q42.83 8.79 42.66 8.47L42.66 8.47L42.66 8.47Q42.49 8.15 42.14 8.15L42.14 8.15L42.14 8.15Q41.78 8.15 41.59 8.44L41.59 8.44L41.59 8.44Q41.41 8.74 41.41 9.52L41.41 9.52L41.41 9.52Q41.41 10.30 41.59 10.61L41.59 10.61L41.59 10.61Q41.78 10.91 42.14 10.91L42.14 10.91ZM50.78 5.88L50.78 5.88Q52.64 5.88 53.66 6.83L53.66 6.83L53.66 6.83Q54.68 7.78 54.68 9.52L54.68 9.52L54.68 9.52Q54.68 11.26 53.66 12.21L53.66 12.21L53.66 12.21Q52.64 13.16 50.78 13.16L50.78 13.16L50.78 13.16Q48.92 13.16 47.89 12.21L47.89 12.21L47.89 12.21Q46.87 11.26 46.87 9.52L46.87 9.52L46.87 9.52Q46.87 7.78 47.89 6.83L47.89 6.83L47.89 6.83Q48.92 5.88 50.78 5.88L50.78 5.88ZM50.78 8.05L50.78 8.05Q50.50 8.05 50.36 8.18L50.36 8.18L50.36 8.18Q50.22 8.30 50.16 8.61L50.16 8.61L50.16 8.61Q50.11 8.92 50.11 9.52L50.11 9.52L50.11 9.52Q50.11 10.12 50.16 10.43L50.16 10.43L50.16 10.43Q50.22 10.74 50.36 10.86L50.36 10.86L50.36 10.86Q50.50 10.99 50.78 10.99L50.78 10.99L50.78 10.99Q51.06 10.99 51.20 10.86L51.20 10.86L51.20 10.86Q51.34 10.74 51.39 10.43L51.39 10.43L51.39 10.43Q51.45 10.12 51.45 9.52L51.45 9.52L51.45 9.52Q51.45 8.92 51.39 8.61L51.39 8.61L51.39 8.61Q51.34 8.30 51.20 8.18L51.20 8.18L51.20 8.18Q51.06 8.05 50.78 8.05L50.78 8.05ZM55.27 13.02L55.27 11.17L57.46 8.76L58.11 8.12L57.09 8.15L55.27 8.15L55.27 6.02L61.67 6.02L61.67 7.87L59.53 10.25L58.84 10.92L59.99 10.89L61.81 10.89L61.81 13.02L55.27 13.02ZM69.87 9.30L69.87 9.30Q69.87 9.83 69.80 10.14L69.80 10.14L65.35 10.14L65.35 10.14Q65.42 10.65 65.65 10.84L65.65 10.84L65.65 10.84Q65.87 11.02 66.32 11.02L66.32 11.02L66.32 11.02Q67.00 11.02 67.16 10.42L67.16 10.42L69.75 11.12L69.75 11.12Q69.51 12.12 68.58 12.64L68.58 12.64L68.58 12.64Q67.65 13.16 66.32 13.16L66.32 13.16L66.32 13.16Q64.33 13.16 63.30 12.22L63.30 12.22L63.30 12.22Q62.27 11.28 62.27 9.52L62.27 9.52L62.27 9.52Q62.27 7.78 63.29 6.83L63.29 6.83L63.29 6.83Q64.30 5.88 66.15 5.88L66.15 5.88L66.15 5.88Q67.96 5.88 68.91 6.80L68.91 6.80L68.91 6.80Q69.87 7.73 69.87 9.30L69.87 9.30ZM66.16 8.01L66.16 8.01Q65.80 8.01 65.60 8.22L65.60 8.22L65.60 8.22Q65.41 8.43 65.35 8.95L65.35 8.95L66.86 8.95L66.86 8.95Q66.82 8.47 66.66 8.24L66.66 8.24L66.66 8.24Q66.50 8.01 66.16 8.01L66.16 8.01ZM76.10 5.88L76.10 5.88Q77.14 5.88 77.72 6.50L77.72 6.50L77.72 6.50Q78.30 7.11 78.30 8.23L78.30 8.23L78.30 13.02L75.08 13.02L75.08 9.07L75.08 9.07Q75.08 8.61 74.97 8.43L74.97 8.43L74.97 8.43Q74.86 8.26 74.59 8.26L74.59 8.26L74.59 8.26Q74.24 8.26 74.08 8.53L74.08 8.53L74.08 8.53Q73.92 8.79 73.92 9.35L73.92 9.35L73.92 13.02L70.70 13.02L70.70 6.02L73.60 6.02L73.67 7.55L73.67 7.55Q73.98 6.73 74.59 6.31L74.59 6.31L74.59 6.31Q75.21 5.88 76.10 5.88L76.10 5.88Z"></path></g><!----><!----></svg>